<svg xmlns="http://www.w3.org/2000/svg" viewBox="0 0 1200 449"><path d="M4 4h0M12 4h0M20 4h0M28 4h0M36 4h0M44 4h0M52 4h0M60 4h0M68 4h0M84 4h0M148 4h0M156 4h0M164 4h0M172 4h0M180 4h0M188 4h0M196 4h0M204 4h0M212 4h0M460 4h0M468 4h0M524 4h0M540 4h0M548 4h0M580 4h0M588 4h0M596 4h0M604 4h0M612 4h0M620 4h0M628 4h0M636 4h0M644 4h0M652 4h0M660 4h0M668 4h0M676 4h0M684 4h0M692 4h0M700 4h0M708 4h0M716 4h0M724 4h0M732 4h0M740 4h0M748 4h0M756 4h0M764 4h0M772 4h0M780 4h0M788 4h0M796 4h0M804 4h0M812 4h0M820 4h0M828 4h0M836 4h0M844 4h0M852 4h0M860 4h0M868 4h0M876 4h0M884 4h0M892 4h0M900 4h0M908 4h0M916 4h0M924 4h0M932 4h0M940 4h0M948 4h0M956 4h0M964 4h0M972 4h0M980 4h0M988 4h0M996 4h0M1004 4h0M1012 4h0M1020 4h0M1028 4h0M1036 4h0M1044 4h0M1052 4h0M1060 4h0M1068 4h0M1076 4h0M1084 4h0M1164 4h0M1172 4h0M1180 4h0M1188 4h0M4 12h0M12 12h0M20 12h0M28 12h0M36 12h0M44 12h0M52 12h0M60 12h0M68 12h0M76 12h0M84 12h0M92 12h0M100 12h0M116 12h0M140 12h0M148 12h0M156 12h0M164 12h0M172 12h0M180 12h0M188 12h0M196 12h0M204 12h0M212 12h0M452 12h0M460 12h0M468 12h0M524 12h0M532 12h0M580 12h0M588 12h0M596 12h0M604 12h0M612 12h0M620 12h0M628 12h0M636 12h0M644 12h0M652 12h0M660 12h0M668 12h0M676 12h0M684 12h0M692 12h0M700 12h0M708 12h0M716 12h0M724 12h0M732 12h0M740 12h0M748 12h0M756 12h0M764 12h0M772 12h0M780 12h0M788 12h0M796 12h0M804 12h0M812 12h0M820 12h0M828 12h0M836 12h0M844 12h0M852 12h0M860 12h0M868 12h0M876 12h0M884 12h0M892 12h0M900 12h0M908 12h0M916 12h0M924 12h0M932 12h0M940 12h0M948 12h0M956 12h0M964 12h0M972 12h0M980 12h0M988 12h0M996 12h0M1004 12h0M1012 12h0M1020 12h0M1028 12h0M1036 12h0M1044 12h0M1052 12h0M1060 12h0M1068 12h0M1164 12h0M1172 12h0M1180 12h0M4 20h0M12 20h0M20 20h0M28 20h0M36 20h0M44 20h0M52 20h0M60 20h0M68 20h0M76 20h0M84 20h0M92 20h0M100 20h0M108 20h0M116 20h0M140 20h0M148 20h0M156 20h0M164 20h0M172 20h0M180 20h0M188 20h0M196 20h0M204 20h0M212 20h0M220 20h0M228 20h0M236 20h0M444 20h0M452 20h0M468 20h0M476 20h0M508 20h0M516 20h0M524 20h0M532 20h0M540 20h0M548 20h0M556 20h0M564 20h0M572 20h0M580 20h0M588 20h0M596 20h0M604 20h0M612 20h0M620 20h0M628 20h0M636 20h0M644 20h0M652 20h0M660 20h0M668 20h0M676 20h0M684 20h0M692 20h0M700 20h0M708 20h0M716 20h0M724 20h0M732 20h0M740 20h0M748 20h0M756 20h0M764 20h0M772 20h0M780 20h0M788 20h0M796 20h0M804 20h0M812 20h0M820 20h0M828 20h0M836 20h0M844 20h0M852 20h0M860 20h0M868 20h0M876 20h0M884 20h0M892 20h0M900 20h0M908 20h0M916 20h0M924 20h0M932 20h0M940 20h0M948 20h0M956 20h0M964 20h0M972 20h0M980 20h0M988 20h0M996 20h0M1004 20h0M1012 20h0M1020 20h0M1028 20h0M1036 20h0M1044 20h0M1052 20h0M1060 20h0M1068 20h0M1076 20h0M1084 20h0M1092 20h0M1100 20h0M1164 20h0M1172 20h0M4 28h0M12 28h0M20 28h0M28 28h0M36 28h0M44 28h0M52 28h0M60 28h0M68 28h0M76 28h0M84 28h0M92 28h0M100 28h0M108 28h0M116 28h0M124 28h0M140 28h0M148 28h0M156 28h0M164 28h0M172 28h0M180 28h0M188 28h0M196 28h0M204 28h0M212 28h0M220 28h0M228 28h0M236 28h0M476 28h0M500 28h0M508 28h0M516 28h0M524 28h0M532 28h0M540 28h0M548 28h0M556 28h0M564 28h0M572 28h0M580 28h0M588 28h0M596 28h0M604 28h0M612 28h0M620 28h0M628 28h0M636 28h0M644 28h0M652 28h0M660 28h0M668 28h0M676 28h0M684 28h0M692 28h0M700 28h0M708 28h0M716 28h0M724 28h0M732 28h0M740 28h0M748 28h0M756 28h0M764 28h0M772 28h0M780 28h0M788 28h0M796 28h0M804 28h0M812 28h0M820 28h0M828 28h0M836 28h0M844 28h0M852 28h0M860 28h0M868 28h0M876 28h0M884 28h0M892 28h0M900 28h0M908 28h0M916 28h0M924 28h0M932 28h0M940 28h0M948 28h0M956 28h0M964 28h0M972 28h0M980 28h0M988 28h0M996 28h0M1004 28h0M1012 28h0M1020 28h0M1028 28h0M1036 28h0M1044 28h0M1052 28h0M1060 28h0M1068 28h0M1076 28h0M1084 28h0M1092 28h0M1100 28h0M1164 28h0M4 36h0M12 36h0M20 36h0M28 36h0M36 36h0M44 36h0M52 36h0M60 36h0M68 36h0M76 36h0M84 36h0M92 36h0M100 36h0M108 36h0M116 36h0M124 36h0M132 36h0M140 36h0M148 36h0M156 36h0M164 36h0M172 36h0M180 36h0M204 36h0M228 36h0M244 36h0M484 36h0M492 36h0M500 36h0M508 36h0M516 36h0M524 36h0M532 36h0M540 36h0M548 36h0M556 36h0M564 36h0M572 36h0M580 36h0M588 36h0M596 36h0M604 36h0M612 36h0M620 36h0M628 36h0M636 36h0M644 36h0M652 36h0M660 36h0M668 36h0M676 36h0M684 36h0M692 36h0M700 36h0M708 36h0M716 36h0M724 36h0M732 36h0M740 36h0M748 36h0M756 36h0M764 36h0M772 36h0M780 36h0M788 36h0M796 36h0M804 36h0M812 36h0M820 36h0M828 36h0M836 36h0M844 36h0M852 36h0M860 36h0M868 36h0M876 36h0M884 36h0M892 36h0M900 36h0M908 36h0M916 36h0M924 36h0M932 36h0M940 36h0M948 36h0M956 36h0M964 36h0M972 36h0M980 36h0M988 36h0M996 36h0M1004 36h0M1012 36h0M1020 36h0M1028 36h0M1036 36h0M1044 36h0M1052 36h0M1060 36h0M1068 36h0M1076 36h0M1084 36h0M1092 36h0M1108 36h0M4 44h0M12 44h0M20 44h0M28 44h0M36 44h0M44 44h0M52 44h0M60 44h0M68 44h0M76 44h0M84 44h0M92 44h0M100 44h0M108 44h0M116 44h0M124 44h0M132 44h0M140 44h0M148 44h0M156 44h0M164 44h0M172 44h0M180 44h0M188 44h0M228 44h0M236 44h0M244 44h0M468 44h0M476 44h0M484 44h0M492 44h0M500 44h0M508 44h0M516 44h0M524 44h0M532 44h0M540 44h0M548 44h0M556 44h0M564 44h0M572 44h0M580 44h0M588 44h0M596 44h0M604 44h0M612 44h0M620 44h0M628 44h0M636 44h0M644 44h0M652 44h0M660 44h0M668 44h0M676 44h0M684 44h0M692 44h0M700 44h0M708 44h0M716 44h0M724 44h0M732 44h0M740 44h0M748 44h0M756 44h0M764 44h0M772 44h0M780 44h0M788 44h0M796 44h0M804 44h0M812 44h0M820 44h0M828 44h0M836 44h0M844 44h0M852 44h0M860 44h0M868 44h0M876 44h0M884 44h0M892 44h0M900 44h0M908 44h0M916 44h0M924 44h0M932 44h0M940 44h0M948 44h0M956 44h0M964 44h0M972 44h0M980 44h0M988 44h0M996 44h0M1004 44h0M1012 44h0M1020 44h0M1028 44h0M1036 44h0M1044 44h0M1052 44h0M1060 44h0M1068 44h0M1076 44h0M1084 44h0M4 52h0M12 52h0M20 52h0M28 52h0M36 52h0M44 52h0M52 52h0M60 52h0M68 52h0M76 52h0M84 52h0M92 52h0M100 52h0M108 52h0M116 52h0M124 52h0M132 52h0M140 52h0M148 52h0M156 52h0M164 52h0M172 52h0M180 52h0M188 52h0M196 52h0M212 52h0M476 52h0M484 52h0M492 52h0M500 52h0M508 52h0M516 52h0M524 52h0M532 52h0M540 52h0M548 52h0M556 52h0M564 52h0M572 52h0M580 52h0M588 52h0M596 52h0M604 52h0M612 52h0M628 52h0M652 52h0M660 52h0M668 52h0M676 52h0M684 52h0M692 52h0M716 52h0M724 52h0M732 52h0M740 52h0M748 52h0M756 52h0M764 52h0M772 52h0M780 52h0M788 52h0M796 52h0M804 52h0M812 52h0M820 52h0M828 52h0M836 52h0M844 52h0M852 52h0M860 52h0M868 52h0M876 52h0M884 52h0M892 52h0M900 52h0M908 52h0M916 52h0M924 52h0M932 52h0M940 52h0M948 52h0M956 52h0M964 52h0M972 52h0M980 52h0M988 52h0M996 52h0M1004 52h0M1012 52h0M1020 52h0M1028 52h0M1036 52h0M1044 52h0M1052 52h0M1060 52h0M1068 52h0M1076 52h0M1100 52h0M4 60h0M12 60h0M20 60h0M28 60h0M36 60h0M44 60h0M52 60h0M60 60h0M68 60h0M76 60h0M84 60h0M92 60h0M100 60h0M108 60h0M116 60h0M124 60h0M132 60h0M140 60h0M148 60h0M156 60h0M164 60h0M172 60h0M196 60h0M476 60h0M484 60h0M492 60h0M500 60h0M508 60h0M516 60h0M524 60h0M532 60h0M548 60h0M556 60h0M564 60h0M572 60h0M580 60h0M588 60h0M596 60h0M604 60h0M652 60h0M660 60h0M668 60h0M676 60h0M684 60h0M708 60h0M716 60h0M724 60h0M732 60h0M740 60h0M748 60h0M756 60h0M764 60h0M772 60h0M780 60h0M788 60h0M796 60h0M804 60h0M812 60h0M820 60h0M828 60h0M836 60h0M844 60h0M852 60h0M860 60h0M868 60h0M876 60h0M884 60h0M892 60h0M900 60h0M908 60h0M916 60h0M924 60h0M932 60h0M940 60h0M948 60h0M956 60h0M964 60h0M972 60h0M980 60h0M988 60h0M996 60h0M1004 60h0M1012 60h0M1020 60h0M1028 60h0M1036 60h0M1044 60h0M1052 60h0M1060 60h0M1068 60h0M1100 60h0M4 68h0M12 68h0M20 68h0M28 68h0M36 68h0M44 68h0M52 68h0M60 68h0M68 68h0M76 68h0M84 68h0M92 68h0M100 68h0M108 68h0M116 68h0M124 68h0M132 68h0M140 68h0M148 68h0M156 68h0M164 68h0M444 68h0M452 68h0M460 68h0M468 68h0M476 68h0M484 68h0M492 68h0M532 68h0M540 68h0M564 68h0M572 68h0M580 68h0M588 68h0M596 68h0M668 68h0M676 68h0M684 68h0M716 68h0M724 68h0M732 68h0M740 68h0M748 68h0M756 68h0M764 68h0M772 68h0M780 68h0M788 68h0M796 68h0M804 68h0M812 68h0M820 68h0M828 68h0M836 68h0M844 68h0M852 68h0M860 68h0M868 68h0M876 68h0M884 68h0M892 68h0M900 68h0M908 68h0M916 68h0M924 68h0M932 68h0M940 68h0M948 68h0M956 68h0M964 68h0M972 68h0M980 68h0M988 68h0M996 68h0M1004 68h0M1012 68h0M1020 68h0M1028 68h0M1036 68h0M1044 68h0M1092 68h0M4 76h0M12 76h0M20 76h0M28 76h0M36 76h0M44 76h0M52 76h0M60 76h0M68 76h0M76 76h0M84 76h0M92 76h0M100 76h0M108 76h0M116 76h0M124 76h0M132 76h0M140 76h0M148 76h0M444 76h0M452 76h0M460 76h0M468 76h0M476 76h0M548 76h0M556 76h0M572 76h0M580 76h0M612 76h0M620 76h0M628 76h0M636 76h0M644 76h0M652 76h0M660 76h0M668 76h0M676 76h0M684 76h0M692 76h0M716 76h0M724 76h0M732 76h0M740 76h0M748 76h0M756 76h0M764 76h0M772 76h0M780 76h0M788 76h0M796 76h0M804 76h0M812 76h0M820 76h0M828 76h0M836 76h0M844 76h0M852 76h0M860 76h0M868 76h0M876 76h0M884 76h0M892 76h0M900 76h0M908 76h0M916 76h0M924 76h0M932 76h0M940 76h0M948 76h0M956 76h0M964 76h0M972 76h0M980 76h0M988 76h0M996 76h0M1004 76h0M1020 76h0M1028 76h0M1036 76h0M1092 76h0M4 84h0M12 84h0M20 84h0M28 84h0M36 84h0M44 84h0M52 84h0M60 84h0M68 84h0M76 84h0M84 84h0M92 84h0M100 84h0M108 84h0M116 84h0M124 84h0M132 84h0M140 84h0M148 84h0M444 84h0M452 84h0M460 84h0M468 84h0M476 84h0M572 84h0M580 84h0M604 84h0M612 84h0M620 84h0M628 84h0M636 84h0M644 84h0M652 84h0M660 84h0M668 84h0M676 84h0M684 84h0M692 84h0M716 84h0M724 84h0M732 84h0M740 84h0M748 84h0M756 84h0M764 84h0M772 84h0M780 84h0M788 84h0M796 84h0M804 84h0M812 84h0M820 84h0M828 84h0M836 84h0M844 84h0M852 84h0M860 84h0M868 84h0M876 84h0M884 84h0M892 84h0M900 84h0M908 84h0M916 84h0M924 84h0M932 84h0M940 84h0M948 84h0M956 84h0M964 84h0M972 84h0M980 84h0M988 84h0M1028 84h0M1036 84h0M1092 84h0M4 92h0M12 92h0M20 92h0M28 92h0M36 92h0M44 92h0M52 92h0M60 92h0M68 92h0M76 92h0M84 92h0M92 92h0M100 92h0M108 92h0M116 92h0M124 92h0M132 92h0M140 92h0M148 92h0M452 92h0M460 92h0M468 92h0M500 92h0M508 92h0M516 92h0M524 92h0M580 92h0M604 92h0M612 92h0M620 92h0M628 92h0M636 92h0M644 92h0M652 92h0M660 92h0M668 92h0M676 92h0M684 92h0M692 92h0M700 92h0M716 92h0M724 92h0M732 92h0M740 92h0M748 92h0M756 92h0M764 92h0M772 92h0M780 92h0M788 92h0M796 92h0M804 92h0M812 92h0M820 92h0M828 92h0M836 92h0M844 92h0M852 92h0M860 92h0M868 92h0M876 92h0M884 92h0M892 92h0M900 92h0M908 92h0M916 92h0M924 92h0M932 92h0M940 92h0M948 92h0M956 92h0M964 92h0M972 92h0M980 92h0M988 92h0M996 92h0M1004 92h0M1036 92h0M1044 92h0M1084 92h0M1092 92h0M4 100h0M12 100h0M20 100h0M28 100h0M36 100h0M44 100h0M52 100h0M60 100h0M68 100h0M76 100h0M84 100h0M92 100h0M100 100h0M108 100h0M116 100h0M124 100h0M132 100h0M140 100h0M460 100h0M468 100h0M476 100h0M484 100h0M492 100h0M500 100h0M508 100h0M516 100h0M524 100h0M588 100h0M628 100h0M644 100h0M652 100h0M660 100h0M668 100h0M676 100h0M684 100h0M692 100h0M700 100h0M708 100h0M716 100h0M724 100h0M732 100h0M740 100h0M748 100h0M756 100h0M764 100h0M772 100h0M780 100h0M788 100h0M796 100h0M804 100h0M812 100h0M820 100h0M828 100h0M836 100h0M844 100h0M852 100h0M860 100h0M868 100h0M876 100h0M884 100h0M892 100h0M900 100h0M908 100h0M916 100h0M924 100h0M932 100h0M940 100h0M948 100h0M956 100h0M964 100h0M972 100h0M980 100h0M988 100h0M996 100h0M1036 100h0M1060 100h0M1068 100h0M1076 100h0M1084 100h0M4 108h0M12 108h0M20 108h0M28 108h0M36 108h0M44 108h0M52 108h0M60 108h0M68 108h0M76 108h0M84 108h0M92 108h0M100 108h0M108 108h0M116 108h0M124 108h0M132 108h0M444 108h0M452 108h0M460 108h0M468 108h0M476 108h0M484 108h0M492 108h0M500 108h0M508 108h0M516 108h0M524 108h0M636 108h0M644 108h0M652 108h0M660 108h0M668 108h0M676 108h0M684 108h0M692 108h0M700 108h0M708 108h0M716 108h0M724 108h0M732 108h0M740 108h0M748 108h0M756 108h0M764 108h0M772 108h0M780 108h0M788 108h0M796 108h0M804 108h0M812 108h0M820 108h0M828 108h0M836 108h0M844 108h0M852 108h0M860 108h0M868 108h0M876 108h0M884 108h0M892 108h0M900 108h0M908 108h0M916 108h0M924 108h0M932 108h0M940 108h0M948 108h0M956 108h0M964 108h0M972 108h0M980 108h0M988 108h0M996 108h0M1004 108h0M1052 108h0M1060 108h0M4 116h0M12 116h0M20 116h0M28 116h0M36 116h0M44 116h0M52 116h0M60 116h0M68 116h0M76 116h0M84 116h0M92 116h0M100 116h0M108 116h0M116 116h0M124 116h0M444 116h0M452 116h0M460 116h0M468 116h0M476 116h0M484 116h0M492 116h0M500 116h0M508 116h0M516 116h0M524 116h0M532 116h0M540 116h0M548 116h0M572 116h0M580 116h0M588 116h0M596 116h0M620 116h0M636 116h0M644 116h0M652 116h0M660 116h0M668 116h0M676 116h0M684 116h0M692 116h0M700 116h0M708 116h0M716 116h0M724 116h0M732 116h0M740 116h0M748 116h0M756 116h0M764 116h0M772 116h0M780 116h0M788 116h0M796 116h0M804 116h0M812 116h0M820 116h0M828 116h0M836 116h0M844 116h0M852 116h0M860 116h0M868 116h0M876 116h0M884 116h0M892 116h0M900 116h0M908 116h0M916 116h0M924 116h0M932 116h0M940 116h0M948 116h0M956 116h0M964 116h0M972 116h0M980 116h0M988 116h0M996 116h0M1004 116h0M4 124h0M12 124h0M20 124h0M28 124h0M36 124h0M44 124h0M52 124h0M60 124h0M84 124h0M124 124h0M436 124h0M444 124h0M452 124h0M460 124h0M468 124h0M476 124h0M484 124h0M492 124h0M500 124h0M508 124h0M516 124h0M524 124h0M532 124h0M540 124h0M548 124h0M556 124h0M564 124h0M572 124h0M580 124h0M588 124h0M596 124h0M604 124h0M612 124h0M620 124h0M628 124h0M636 124h0M644 124h0M652 124h0M660 124h0M668 124h0M676 124h0M684 124h0M708 124h0M716 124h0M724 124h0M732 124h0M740 124h0M748 124h0M756 124h0M764 124h0M772 124h0M780 124h0M788 124h0M796 124h0M804 124h0M812 124h0M820 124h0M828 124h0M836 124h0M844 124h0M852 124h0M860 124h0M868 124h0M876 124h0M884 124h0M892 124h0M900 124h0M908 124h0M916 124h0M924 124h0M932 124h0M940 124h0M948 124h0M956 124h0M964 124h0M972 124h0M980 124h0M988 124h0M996 124h0M1004 124h0M1012 124h0M4 132h0M12 132h0M20 132h0M28 132h0M36 132h0M44 132h0M52 132h0M124 132h0M428 132h0M436 132h0M444 132h0M452 132h0M460 132h0M468 132h0M476 132h0M484 132h0M492 132h0M500 132h0M508 132h0M516 132h0M524 132h0M532 132h0M540 132h0M548 132h0M556 132h0M564 132h0M572 132h0M580 132h0M588 132h0M596 132h0M604 132h0M612 132h0M620 132h0M636 132h0M644 132h0M652 132h0M660 132h0M668 132h0M676 132h0M684 132h0M692 132h0M708 132h0M716 132h0M724 132h0M732 132h0M740 132h0M748 132h0M756 132h0M764 132h0M772 132h0M780 132h0M788 132h0M796 132h0M804 132h0M812 132h0M820 132h0M828 132h0M836 132h0M844 132h0M852 132h0M860 132h0M868 132h0M876 132h0M884 132h0M892 132h0M900 132h0M908 132h0M916 132h0M924 132h0M932 132h0M940 132h0M948 132h0M956 132h0M964 132h0M972 132h0M980 132h0M988 132h0M996 132h0M1004 132h0M4 140h0M12 140h0M20 140h0M28 140h0M36 140h0M44 140h0M52 140h0M420 140h0M428 140h0M436 140h0M444 140h0M452 140h0M460 140h0M468 140h0M476 140h0M484 140h0M492 140h0M500 140h0M508 140h0M516 140h0M524 140h0M532 140h0M540 140h0M548 140h0M556 140h0M564 140h0M572 140h0M580 140h0M588 140h0M596 140h0M604 140h0M612 140h0M620 140h0M628 140h0M644 140h0M652 140h0M660 140h0M668 140h0M676 140h0M684 140h0M692 140h0M732 140h0M740 140h0M748 140h0M756 140h0M764 140h0M772 140h0M780 140h0M788 140h0M796 140h0M804 140h0M812 140h0M820 140h0M828 140h0M836 140h0M844 140h0M852 140h0M860 140h0M868 140h0M876 140h0M884 140h0M892 140h0M900 140h0M908 140h0M916 140h0M924 140h0M932 140h0M940 140h0M948 140h0M956 140h0M964 140h0M972 140h0M980 140h0M988 140h0M996 140h0M20 148h0M28 148h0M36 148h0M44 148h0M52 148h0M412 148h0M420 148h0M428 148h0M436 148h0M444 148h0M452 148h0M460 148h0M468 148h0M476 148h0M484 148h0M492 148h0M500 148h0M508 148h0M516 148h0M524 148h0M532 148h0M540 148h0M548 148h0M556 148h0M564 148h0M572 148h0M580 148h0M588 148h0M596 148h0M604 148h0M612 148h0M620 148h0M628 148h0M652 148h0M660 148h0M668 148h0M676 148h0M684 148h0M692 148h0M700 148h0M716 148h0M724 148h0M780 148h0M788 148h0M796 148h0M804 148h0M812 148h0M820 148h0M828 148h0M836 148h0M844 148h0M852 148h0M860 148h0M868 148h0M876 148h0M884 148h0M892 148h0M900 148h0M908 148h0M916 148h0M924 148h0M932 148h0M940 148h0M948 148h0M956 148h0M964 148h0M972 148h0M980 148h0M988 148h0M20 156h0M28 156h0M36 156h0M44 156h0M52 156h0M124 156h0M132 156h0M140 156h0M156 156h0M412 156h0M420 156h0M428 156h0M436 156h0M444 156h0M452 156h0M460 156h0M468 156h0M476 156h0M484 156h0M492 156h0M500 156h0M508 156h0M516 156h0M524 156h0M532 156h0M540 156h0M548 156h0M556 156h0M564 156h0M572 156h0M580 156h0M588 156h0M596 156h0M604 156h0M612 156h0M620 156h0M628 156h0M636 156h0M652 156h0M660 156h0M668 156h0M676 156h0M684 156h0M692 156h0M700 156h0M708 156h0M716 156h0M724 156h0M732 156h0M740 156h0M788 156h0M804 156h0M812 156h0M820 156h0M828 156h0M836 156h0M844 156h0M852 156h0M860 156h0M868 156h0M876 156h0M884 156h0M892 156h0M900 156h0M908 156h0M916 156h0M924 156h0M932 156h0M940 156h0M948 156h0M956 156h0M964 156h0M972 156h0M20 164h0M28 164h0M36 164h0M44 164h0M52 164h0M92 164h0M148 164h0M412 164h0M420 164h0M428 164h0M436 164h0M444 164h0M452 164h0M460 164h0M468 164h0M476 164h0M484 164h0M492 164h0M500 164h0M508 164h0M516 164h0M524 164h0M532 164h0M540 164h0M548 164h0M556 164h0M564 164h0M572 164h0M580 164h0M588 164h0M596 164h0M604 164h0M612 164h0M620 164h0M628 164h0M636 164h0M660 164h0M668 164h0M676 164h0M684 164h0M692 164h0M700 164h0M708 164h0M716 164h0M724 164h0M732 164h0M804 164h0M812 164h0M820 164h0M828 164h0M836 164h0M844 164h0M852 164h0M892 164h0M900 164h0M908 164h0M916 164h0M924 164h0M932 164h0M940 164h0M1012 164h0M28 172h0M36 172h0M44 172h0M52 172h0M60 172h0M76 172h0M84 172h0M92 172h0M156 172h0M164 172h0M172 172h0M180 172h0M412 172h0M420 172h0M428 172h0M436 172h0M444 172h0M452 172h0M460 172h0M468 172h0M476 172h0M484 172h0M492 172h0M500 172h0M508 172h0M516 172h0M524 172h0M532 172h0M540 172h0M548 172h0M556 172h0M564 172h0M572 172h0M580 172h0M588 172h0M596 172h0M604 172h0M612 172h0M620 172h0M628 172h0M636 172h0M644 172h0M668 172h0M676 172h0M684 172h0M692 172h0M700 172h0M708 172h0M716 172h0M724 172h0M804 172h0M812 172h0M820 172h0M828 172h0M836 172h0M844 172h0M892 172h0M900 172h0M908 172h0M916 172h0M924 172h0M932 172h0M940 172h0M956 172h0M52 180h0M60 180h0M68 180h0M76 180h0M84 180h0M92 180h0M380 180h0M412 180h0M420 180h0M428 180h0M436 180h0M444 180h0M452 180h0M460 180h0M468 180h0M476 180h0M484 180h0M492 180h0M500 180h0M508 180h0M516 180h0M524 180h0M532 180h0M540 180h0M548 180h0M556 180h0M564 180h0M572 180h0M580 180h0M588 180h0M596 180h0M604 180h0M612 180h0M620 180h0M628 180h0M636 180h0M644 180h0M668 180h0M676 180h0M684 180h0M692 180h0M700 180h0M708 180h0M804 180h0M812 180h0M820 180h0M828 180h0M836 180h0M892 180h0M908 180h0M916 180h0M924 180h0M932 180h0M940 180h0M948 180h0M1012 180h0M84 188h0M92 188h0M100 188h0M108 188h0M116 188h0M412 188h0M420 188h0M428 188h0M436 188h0M444 188h0M452 188h0M460 188h0M468 188h0M476 188h0M484 188h0M492 188h0M500 188h0M508 188h0M516 188h0M524 188h0M532 188h0M540 188h0M548 188h0M556 188h0M564 188h0M572 188h0M580 188h0M588 188h0M596 188h0M604 188h0M612 188h0M620 188h0M628 188h0M636 188h0M644 188h0M652 188h0M668 188h0M676 188h0M684 188h0M692 188h0M804 188h0M812 188h0M820 188h0M828 188h0M908 188h0M916 188h0M924 188h0M932 188h0M940 188h0M948 188h0M1004 188h0M1012 188h0M100 196h0M108 196h0M412 196h0M420 196h0M428 196h0M436 196h0M444 196h0M452 196h0M460 196h0M468 196h0M476 196h0M484 196h0M492 196h0M500 196h0M508 196h0M516 196h0M524 196h0M532 196h0M540 196h0M548 196h0M556 196h0M564 196h0M572 196h0M580 196h0M588 196h0M596 196h0M604 196h0M612 196h0M620 196h0M628 196h0M636 196h0M644 196h0M652 196h0M660 196h0M676 196h0M812 196h0M820 196h0M828 196h0M916 196h0M924 196h0M932 196h0M940 196h0M948 196h0M956 196h0M1020 196h0M108 204h0M164 204h0M172 204h0M180 204h0M420 204h0M428 204h0M436 204h0M444 204h0M452 204h0M460 204h0M468 204h0M476 204h0M484 204h0M492 204h0M500 204h0M508 204h0M516 204h0M524 204h0M532 204h0M540 204h0M548 204h0M556 204h0M564 204h0M572 204h0M580 204h0M588 204h0M596 204h0M604 204h0M612 204h0M620 204h0M628 204h0M636 204h0M644 204h0M652 204h0M660 204h0M668 204h0M692 204h0M700 204h0M812 204h0M820 204h0M828 204h0M932 204h0M940 204h0M948 204h0M1020 204h0M1028 204h0M116 212h0M132 212h0M156 212h0M164 212h0M172 212h0M180 212h0M188 212h0M196 212h0M204 212h0M212 212h0M428 212h0M436 212h0M444 212h0M452 212h0M460 212h0M468 212h0M476 212h0M484 212h0M492 212h0M500 212h0M508 212h0M516 212h0M524 212h0M532 212h0M540 212h0M548 212h0M556 212h0M564 212h0M572 212h0M580 212h0M588 212h0M596 212h0M604 212h0M612 212h0M620 212h0M628 212h0M636 212h0M644 212h0M652 212h0M660 212h0M668 212h0M676 212h0M684 212h0M692 212h0M700 212h0M820 212h0M940 212h0M996 212h0M1028 212h0M140 220h0M148 220h0M156 220h0M164 220h0M172 220h0M180 220h0M188 220h0M196 220h0M204 220h0M212 220h0M220 220h0M428 220h0M436 220h0M444 220h0M452 220h0M460 220h0M468 220h0M476 220h0M484 220h0M492 220h0M500 220h0M508 220h0M516 220h0M524 220h0M532 220h0M540 220h0M548 220h0M556 220h0M564 220h0M572 220h0M580 220h0M588 220h0M596 220h0M604 220h0M612 220h0M620 220h0M628 220h0M636 220h0M644 220h0M652 220h0M660 220h0M668 220h0M676 220h0M684 220h0M692 220h0M836 220h0M916 220h0M1028 220h0M148 228h0M156 228h0M164 228h0M172 228h0M180 228h0M188 228h0M196 228h0M204 228h0M212 228h0M220 228h0M228 228h0M236 228h0M244 228h0M444 228h0M452 228h0M460 228h0M468 228h0M476 228h0M508 228h0M516 228h0M524 228h0M532 228h0M540 228h0M548 228h0M556 228h0M564 228h0M572 228h0M580 228h0M588 228h0M596 228h0M604 228h0M612 228h0M620 228h0M628 228h0M636 228h0M644 228h0M652 228h0M660 228h0M668 228h0M676 228h0M684 228h0M692 228h0M924 228h0M988 228h0M996 228h0M148 236h0M156 236h0M164 236h0M172 236h0M180 236h0M188 236h0M196 236h0M204 236h0M212 236h0M220 236h0M228 236h0M236 236h0M244 236h0M252 236h0M524 236h0M532 236h0M540 236h0M548 236h0M556 236h0M564 236h0M572 236h0M580 236h0M588 236h0M596 236h0M604 236h0M612 236h0M620 236h0M628 236h0M636 236h0M644 236h0M652 236h0M660 236h0M668 236h0M676 236h0M684 236h0M908 236h0M924 236h0M980 236h0M988 236h0M140 244h0M148 244h0M156 244h0M164 244h0M172 244h0M180 244h0M188 244h0M196 244h0M204 244h0M212 244h0M220 244h0M228 244h0M236 244h0M244 244h0M252 244h0M260 244h0M524 244h0M532 244h0M540 244h0M548 244h0M556 244h0M564 244h0M572 244h0M580 244h0M588 244h0M596 244h0M604 244h0M612 244h0M620 244h0M628 244h0M636 244h0M644 244h0M652 244h0M660 244h0M668 244h0M676 244h0M916 244h0M932 244h0M972 244h0M980 244h0M988 244h0M132 252h0M140 252h0M148 252h0M156 252h0M164 252h0M172 252h0M180 252h0M188 252h0M196 252h0M204 252h0M212 252h0M220 252h0M228 252h0M236 252h0M244 252h0M252 252h0M260 252h0M524 252h0M532 252h0M540 252h0M548 252h0M556 252h0M564 252h0M572 252h0M580 252h0M588 252h0M596 252h0M604 252h0M612 252h0M620 252h0M628 252h0M636 252h0M644 252h0M652 252h0M660 252h0M916 252h0M924 252h0M932 252h0M964 252h0M972 252h0M980 252h0M988 252h0M1004 252h0M132 260h0M140 260h0M148 260h0M156 260h0M164 260h0M172 260h0M180 260h0M188 260h0M196 260h0M204 260h0M212 260h0M220 260h0M228 260h0M236 260h0M244 260h0M252 260h0M260 260h0M268 260h0M276 260h0M284 260h0M524 260h0M532 260h0M540 260h0M548 260h0M556 260h0M564 260h0M572 260h0M580 260h0M588 260h0M596 260h0M604 260h0M612 260h0M620 260h0M628 260h0M636 260h0M644 260h0M652 260h0M660 260h0M924 260h0M932 260h0M940 260h0M964 260h0M972 260h0M980 260h0M988 260h0M1004 260h0M1012 260h0M1036 260h0M1060 260h0M132 268h0M140 268h0M148 268h0M156 268h0M164 268h0M172 268h0M180 268h0M188 268h0M196 268h0M204 268h0M212 268h0M220 268h0M228 268h0M236 268h0M244 268h0M252 268h0M260 268h0M268 268h0M276 268h0M284 268h0M292 268h0M300 268h0M308 268h0M532 268h0M540 268h0M548 268h0M556 268h0M564 268h0M572 268h0M580 268h0M588 268h0M596 268h0M604 268h0M612 268h0M620 268h0M628 268h0M636 268h0M644 268h0M652 268h0M932 268h0M940 268h0M980 268h0M988 268h0M1004 268h0M1012 268h0M1060 268h0M1068 268h0M1076 268h0M1084 268h0M1092 268h0M1100 268h0M132 276h0M140 276h0M148 276h0M156 276h0M164 276h0M172 276h0M180 276h0M188 276h0M196 276h0M204 276h0M212 276h0M220 276h0M228 276h0M236 276h0M244 276h0M252 276h0M260 276h0M268 276h0M276 276h0M284 276h0M292 276h0M300 276h0M308 276h0M316 276h0M324 276h0M540 276h0M548 276h0M556 276h0M564 276h0M572 276h0M580 276h0M588 276h0M596 276h0M604 276h0M612 276h0M620 276h0M628 276h0M636 276h0M644 276h0M940 276h0M1004 276h0M1012 276h0M1084 276h0M1092 276h0M1100 276h0M1108 276h0M1116 276h0M1140 276h0M140 284h0M148 284h0M156 284h0M164 284h0M172 284h0M180 284h0M188 284h0M196 284h0M204 284h0M212 284h0M220 284h0M228 284h0M236 284h0M244 284h0M252 284h0M260 284h0M268 284h0M276 284h0M284 284h0M292 284h0M300 284h0M308 284h0M316 284h0M324 284h0M540 284h0M548 284h0M556 284h0M564 284h0M572 284h0M580 284h0M588 284h0M596 284h0M604 284h0M612 284h0M620 284h0M628 284h0M636 284h0M644 284h0M652 284h0M948 284h0M956 284h0M964 284h0M1092 284h0M1100 284h0M1108 284h0M1116 284h0M140 292h0M148 292h0M156 292h0M164 292h0M172 292h0M180 292h0M188 292h0M196 292h0M204 292h0M212 292h0M220 292h0M228 292h0M236 292h0M244 292h0M252 292h0M260 292h0M268 292h0M276 292h0M284 292h0M292 292h0M300 292h0M308 292h0M316 292h0M324 292h0M540 292h0M548 292h0M556 292h0M564 292h0M572 292h0M580 292h0M588 292h0M596 292h0M604 292h0M612 292h0M620 292h0M628 292h0M636 292h0M644 292h0M652 292h0M1028 292h0M1100 292h0M1124 292h0M148 300h0M156 300h0M164 300h0M172 300h0M180 300h0M188 300h0M196 300h0M204 300h0M212 300h0M220 300h0M228 300h0M236 300h0M244 300h0M252 300h0M260 300h0M268 300h0M276 300h0M284 300h0M292 300h0M300 300h0M308 300h0M316 300h0M548 300h0M556 300h0M564 300h0M572 300h0M580 300h0M588 300h0M596 300h0M604 300h0M612 300h0M620 300h0M628 300h0M636 300h0M644 300h0M652 300h0M1188 300h0M148 308h0M156 308h0M164 308h0M172 308h0M180 308h0M188 308h0M196 308h0M204 308h0M212 308h0M220 308h0M228 308h0M236 308h0M244 308h0M252 308h0M260 308h0M268 308h0M276 308h0M284 308h0M292 308h0M300 308h0M308 308h0M540 308h0M548 308h0M556 308h0M564 308h0M572 308h0M580 308h0M588 308h0M596 308h0M604 308h0M612 308h0M620 308h0M628 308h0M636 308h0M644 308h0M652 308h0M1052 308h0M1060 308h0M1068 308h0M1076 308h0M1100 308h0M156 316h0M164 316h0M172 316h0M180 316h0M188 316h0M196 316h0M204 316h0M212 316h0M220 316h0M228 316h0M236 316h0M244 316h0M252 316h0M260 316h0M268 316h0M276 316h0M284 316h0M292 316h0M300 316h0M308 316h0M540 316h0M548 316h0M556 316h0M564 316h0M572 316h0M580 316h0M588 316h0M596 316h0M604 316h0M612 316h0M620 316h0M628 316h0M636 316h0M644 316h0M652 316h0M692 316h0M1028 316h0M1036 316h0M1052 316h0M1060 316h0M1068 316h0M1100 316h0M1108 316h0M164 324h0M172 324h0M180 324h0M188 324h0M196 324h0M204 324h0M212 324h0M220 324h0M228 324h0M236 324h0M244 324h0M252 324h0M260 324h0M268 324h0M276 324h0M284 324h0M292 324h0M300 324h0M308 324h0M532 324h0M540 324h0M548 324h0M556 324h0M564 324h0M572 324h0M580 324h0M588 324h0M596 324h0M604 324h0M612 324h0M620 324h0M628 324h0M636 324h0M644 324h0M652 324h0M676 324h0M684 324h0M692 324h0M1020 324h0M1028 324h0M1036 324h0M1044 324h0M1052 324h0M1060 324h0M1068 324h0M1076 324h0M1100 324h0M1108 324h0M172 332h0M180 332h0M188 332h0M196 332h0M204 332h0M212 332h0M220 332h0M228 332h0M236 332h0M244 332h0M252 332h0M260 332h0M268 332h0M276 332h0M284 332h0M292 332h0M300 332h0M532 332h0M540 332h0M548 332h0M556 332h0M564 332h0M572 332h0M580 332h0M588 332h0M596 332h0M604 332h0M612 332h0M620 332h0M628 332h0M636 332h0M676 332h0M684 332h0M692 332h0M1020 332h0M1028 332h0M1036 332h0M1044 332h0M1052 332h0M1060 332h0M1068 332h0M1076 332h0M1084 332h0M1092 332h0M1100 332h0M1108 332h0M1116 332h0M180 340h0M188 340h0M196 340h0M204 340h0M212 340h0M220 340h0M228 340h0M236 340h0M244 340h0M252 340h0M260 340h0M268 340h0M276 340h0M284 340h0M292 340h0M300 340h0M540 340h0M548 340h0M556 340h0M564 340h0M572 340h0M580 340h0M588 340h0M596 340h0M604 340h0M612 340h0M620 340h0M628 340h0M676 340h0M684 340h0M692 340h0M1004 340h0M1012 340h0M1020 340h0M1028 340h0M1036 340h0M1044 340h0M1052 340h0M1060 340h0M1068 340h0M1076 340h0M1084 340h0M1092 340h0M1100 340h0M1108 340h0M1116 340h0M1124 340h0M180 348h0M188 348h0M196 348h0M204 348h0M212 348h0M220 348h0M228 348h0M236 348h0M244 348h0M252 348h0M260 348h0M268 348h0M276 348h0M284 348h0M292 348h0M300 348h0M548 348h0M556 348h0M564 348h0M572 348h0M580 348h0M588 348h0M596 348h0M604 348h0M612 348h0M620 348h0M628 348h0M676 348h0M684 348h0M988 348h0M996 348h0M1004 348h0M1012 348h0M1020 348h0M1028 348h0M1036 348h0M1044 348h0M1052 348h0M1060 348h0M1068 348h0M1076 348h0M1084 348h0M1092 348h0M1100 348h0M1108 348h0M1116 348h0M1124 348h0M1132 348h0M180 356h0M188 356h0M196 356h0M204 356h0M212 356h0M220 356h0M228 356h0M236 356h0M244 356h0M252 356h0M260 356h0M268 356h0M276 356h0M548 356h0M556 356h0M564 356h0M572 356h0M580 356h0M588 356h0M596 356h0M604 356h0M612 356h0M620 356h0M628 356h0M676 356h0M684 356h0M980 356h0M988 356h0M996 356h0M1004 356h0M1012 356h0M1020 356h0M1028 356h0M1036 356h0M1044 356h0M1052 356h0M1060 356h0M1068 356h0M1076 356h0M1084 356h0M1092 356h0M1100 356h0M1108 356h0M1116 356h0M1124 356h0M1132 356h0M1140 356h0M180 364h0M188 364h0M196 364h0M204 364h0M212 364h0M220 364h0M228 364h0M236 364h0M244 364h0M252 364h0M260 364h0M548 364h0M556 364h0M564 364h0M572 364h0M580 364h0M588 364h0M596 364h0M604 364h0M612 364h0M620 364h0M980 364h0M988 364h0M996 364h0M1004 364h0M1012 364h0M1020 364h0M1028 364h0M1036 364h0M1044 364h0M1052 364h0M1060 364h0M1068 364h0M1076 364h0M1084 364h0M1092 364h0M1100 364h0M1108 364h0M1116 364h0M1124 364h0M1132 364h0M1140 364h0M1148 364h0M172 372h0M180 372h0M188 372h0M196 372h0M204 372h0M212 372h0M220 372h0M228 372h0M236 372h0M244 372h0M252 372h0M260 372h0M548 372h0M556 372h0M564 372h0M572 372h0M580 372h0M588 372h0M596 372h0M604 372h0M612 372h0M620 372h0M980 372h0M988 372h0M996 372h0M1004 372h0M1012 372h0M1020 372h0M1028 372h0M1036 372h0M1044 372h0M1052 372h0M1060 372h0M1068 372h0M1076 372h0M1084 372h0M1092 372h0M1100 372h0M1108 372h0M1116 372h0M1124 372h0M1132 372h0M1140 372h0M1148 372h0M172 380h0M180 380h0M188 380h0M196 380h0M204 380h0M212 380h0M220 380h0M228 380h0M236 380h0M244 380h0M252 380h0M260 380h0M556 380h0M564 380h0M572 380h0M580 380h0M588 380h0M596 380h0M604 380h0M612 380h0M988 380h0M996 380h0M1004 380h0M1012 380h0M1020 380h0M1028 380h0M1036 380h0M1044 380h0M1052 380h0M1060 380h0M1068 380h0M1076 380h0M1084 380h0M1092 380h0M1100 380h0M1108 380h0M1116 380h0M1124 380h0M1132 380h0M1140 380h0M1148 380h0M172 388h0M180 388h0M188 388h0M196 388h0M204 388h0M212 388h0M220 388h0M228 388h0M236 388h0M244 388h0M252 388h0M564 388h0M572 388h0M580 388h0M588 388h0M596 388h0M604 388h0M612 388h0M988 388h0M996 388h0M1004 388h0M1012 388h0M1020 388h0M1028 388h0M1036 388h0M1044 388h0M1052 388h0M1060 388h0M1068 388h0M1076 388h0M1084 388h0M1092 388h0M1100 388h0M1108 388h0M1116 388h0M1124 388h0M1132 388h0M1140 388h0M172 396h0M180 396h0M188 396h0M196 396h0M204 396h0M212 396h0M220 396h0M228 396h0M236 396h0M244 396h0M564 396h0M572 396h0M580 396h0M588 396h0M596 396h0M988 396h0M996 396h0M1004 396h0M1012 396h0M1020 396h0M1068 396h0M1076 396h0M1084 396h0M1092 396h0M1100 396h0M1108 396h0M1116 396h0M1124 396h0M1132 396h0M1140 396h0M172 404h0M180 404h0M188 404h0M196 404h0M204 404h0M212 404h0M220 404h0M236 404h0M988 404h0M996 404h0M1092 404h0M1100 404h0M1108 404h0M1116 404h0M1124 404h0M1132 404h0M164 412h0M172 412h0M180 412h0M188 412h0M196 412h0M204 412h0M212 412h0M220 412h0M228 412h0M1092 412h0M1100 412h0M1108 412h0M1116 412h0M1124 412h0M1132 412h0M164 420h0M172 420h0M180 420h0M188 420h0M196 420h0M204 420h0M212 420h0M220 420h0M1100 420h0M1108 420h0M1116 420h0M164 428h0M172 428h0M180 428h0M188 428h0M196 428h0M204 428h0M164 436h0M172 436h0M180 436h0M188 436h0M196 436h0M1116 436h0M1124 436h0M164 444h0M172 444h0M180 444h0M188 444h0" fill="none" stroke="#0f5d6e" stroke-opacity=".28" stroke-width="3.6" stroke-linecap="round"/></svg>
